<svg version="1.2" xmlns="http://www.w3.org/2000/svg" viewBox="0 0 160 160" width="160" height="160">
	<title>3DaxonIcon-svg</title>
	<style>
		.s0 { fill: #000000 } 
	</style>
	<path id="Shape 1" fill-rule="evenodd" class="s0" d="m82.4 70.9l53.8-18.7v50.9l-53.8 27.9zm-64.1-29.4l58.7-20.3 58.7 20.3-58.7 20.3zm126.8-5.6q-1.9-2.7-5.1-3.8l-59.3-20.5q-1.8-0.6-3.7-0.6-1.8 0-3.7 0.6l-59.2 20.5q-3.2 1.1-5.1 3.8-2 2.6-2 5.8v61.4q0 2.8 1.5 5.2 1.6 2.4 4.2 3.7l59.2 30.7q2.3 1.3 5.1 1.3 2.8 0 5.2-1.3l59.2-30.7q2.6-1.3 4.1-3.7 1.5-2.4 1.5-5.2v-61.4q0-3.2-1.9-5.8z"/>
</svg>